<?xml version="1.0" encoding="UTF-8"?>
<svg version="1.1" xmlns="http://www.w3.org/2000/svg" width="256" height="256">
<path d="M0 0 C1.09828125 -0.03673828 1.09828125 -0.03673828 2.21875 -0.07421875 C5.84035203 1.13504905 7.56356564 3.55188411 9.5 6.6875 C11.46745668 10.73668302 13.14999175 14.88036814 14.8125 19.0625 C15.26689453 20.18011719 15.72128906 21.29773438 16.18945312 22.44921875 C17.30278199 25.19152352 18.40591407 27.9374744 19.5 30.6875 C19.93570313 29.74390625 20.37140625 28.8003125 20.8203125 27.828125 C23.74729689 21.50782311 26.69654836 15.19784306 29.75 8.9375 C30.20890625 7.99390625 30.6678125 7.0503125 31.140625 6.078125 C32.43709902 3.79811897 33.40870906 2.25851856 35.5 0.6875 C37.5859375 0.21875 37.5859375 0.21875 39.875 0.1875 C41.00035156 0.14109375 41.00035156 0.14109375 42.1484375 0.09375 C45.75817507 1.00517875 47.18349619 2.81723515 49.5 5.6875 C49.95172827 8.53093098 50.1130333 10.75317068 50.0234375 13.578125 C50.01873444 14.32334412 50.01403137 15.06856323 50.00918579 15.83636475 C49.98791927 18.20436902 49.93132086 20.57009819 49.875 22.9375 C49.85848564 24.5442498 49.84413944 26.15102345 49.83203125 27.7578125 C49.69595808 39.49154192 49.69595808 39.49154192 48.5 40.6875 C45.53 40.6875 42.56 40.6875 39.5 40.6875 C39.17 31.7775 38.84 22.8675 38.5 13.6875 C35.0479057 21.4454385 35.0479057 21.4454385 31.62011719 29.21411133 C30.9651123 30.66466919 30.9651123 30.66466919 30.296875 32.14453125 C29.85698242 33.13428955 29.41708984 34.12404785 28.96386719 35.14379883 C27.40504272 37.85250332 26.18670994 39.12711186 23.5 40.6875 C20.0625 41.1875 20.0625 41.1875 16.5 40.6875 C10.99653977 36.48796417 8.87394943 30.59311989 6.1875 24.375 C4.640625 20.848125 3.09375 17.32125 1.5 13.6875 C1.17 22.5975 0.84 31.5075 0.5 40.6875 C-2.47 40.6875 -5.44 40.6875 -8.5 40.6875 C-11.17412275 38.01337725 -9.82173686 29.12390555 -9.85009766 25.36035156 C-9.86662713 23.75213113 -9.89387789 22.14398326 -9.93212891 20.53613281 C-9.98704207 18.21640959 -10.00879421 15.89841164 -10.0234375 13.578125 C-10.04610687 12.86335999 -10.06877625 12.14859497 -10.09213257 11.41217041 C-10.07553211 7.46830106 -9.62545493 5.84231318 -7.10986328 2.73803711 C-4.43566158 0.63695011 -3.33887449 -0.0176349 0 0 Z " fill="#00618A" transform="translate(12.5,141.3125)"/>
<path d="M0 0 C3.30498058 0.47744503 4.71715707 0.95748629 7.5625 2.875 C10.75854722 4.98439117 12.24943205 5.31145996 15.9375 5.8125 C26.63960749 7.50687967 34.16252062 14.56983726 41.6875 21.9375 C42.51894531 22.71480469 42.51894531 22.71480469 43.3671875 23.5078125 C49.69524688 30.04110624 53.54599198 39.64472227 56.921875 47.98828125 C59.58088137 54.33714066 62.58718003 56.49219792 68.75390625 59.4375 C73.66337474 61.9478008 80.58271312 65.734734 82.4609375 71.1796875 C82.57308594 72.04980469 82.57308594 72.04980469 82.6875 72.9375 C79.03956816 74.21003436 75.4938457 75.26579194 71.6875 75.9375 C73.89355281 78.20540476 76.21308972 80.26631124 78.625 82.3125 C81.68454205 84.96635692 84.29478831 87.64752143 86.6875 90.9375 C79.42437404 90.9375 71.02723294 83.64830366 65.6875 78.9375 C62.6875 75.35926871 62.6875 75.35926871 62.6875 72.9375 C66.6475 71.6175 70.6075 70.2975 74.6875 68.9375 C70.48756039 65.57754831 67.4941993 63.84475109 62.25 62.625 C57.41109864 61.00098516 55.64414614 58.91144586 53.37280273 54.55249023 C52.03446257 51.71568064 50.76136764 48.85873062 49.54443359 45.96777344 C43.43172881 31.48536518 35.59778563 19.98248792 21.0625 13.0625 C18.34438389 12.1564613 16.40844482 11.74730039 13.625 11.5 C9.2595204 10.87636006 7.29098024 9.33982016 3.6875 6.9375 C0.89188833 7.05995809 0.89188833 7.05995809 -1.3125 7.9375 C-0.735 8.906875 -0.1575 9.87625 0.4375 10.875 C4.43588755 17.89690323 7.28456514 25.23718601 9.6875 32.9375 C10.3475 32.9375 11.0075 32.9375 11.6875 32.9375 C13.04851815 36.34004537 12.2472307 38.43050991 11.17578125 41.8125 C9.71403486 48.17402028 10.09737808 54.94784306 12.6875 60.9375 C12.88085938 60.32261719 13.07421875 59.70773438 13.2734375 59.07421875 C13.53382813 58.26597656 13.79421875 57.45773438 14.0625 56.625 C14.44535156 55.42423828 14.44535156 55.42423828 14.8359375 54.19921875 C15.6875 51.9375 15.6875 51.9375 17.6875 48.9375 C18.6775 48.9375 19.6675 48.9375 20.6875 48.9375 C20.96722656 49.68773437 21.24695313 50.43796875 21.53515625 51.2109375 C24.41539837 58.56435307 27.8994623 64.67447439 32.6875 70.9375 C33.6875 72.27083333 34.6875 73.60416667 35.6875 74.9375 C32.32171763 73.45011554 29.85837508 71.51375007 27.125 69.0625 C26.36058594 68.38445312 25.59617188 67.70640625 24.80859375 67.0078125 C22.85047959 65.09657769 21.25625903 63.17285632 19.6875 60.9375 C19.460625 61.741875 19.23375 62.54625 19 63.375 C17.6875 65.9375 17.6875 65.9375 15.375 67.0625 C12.6875 66.9375 12.6875 66.9375 10 64.875 C6.20306508 60.05186645 5.41942152 55.61321135 5.5 49.5625 C5.50902344 48.42167969 5.51804688 47.28085938 5.52734375 46.10546875 C5.65732369 43.53440212 5.98404986 41.36077221 6.5625 38.875 C6.75892038 32.68775808 3.60202394 28.25265196 0.6875 22.9375 C0.14448041 21.67598724 -0.38139042 20.40665296 -0.875 19.125 C-2.09093931 16.42878675 -3.21710565 14.66586983 -5 12.375 C-6.86812706 9.86346966 -7.31540454 8.91862047 -7.8125 5.6875 C-6.9432417 0.90657937 -4.74585512 -0.58196151 0 0 Z M-3.3125 4.9375 C-2.3125 7.9375 -2.3125 7.9375 -2.3125 7.9375 Z " fill="#00618B" transform="translate(166.3125,63.0625)"/>
<path d="M0 0 C0.81597656 -0.00773438 1.63195312 -0.01546875 2.47265625 -0.0234375 C8.46667286 -0.00419507 14.06041528 0.25981246 18.875 4.1875 C22.56129724 8.86626188 21.68385452 14.4599197 21.6875 20.125 C21.69974609 21.11886719 21.71199219 22.11273438 21.72460938 23.13671875 C21.72654297 24.09964844 21.72847656 25.06257813 21.73046875 26.0546875 C21.73457764 26.93108887 21.73868652 27.80749023 21.74291992 28.71044922 C21.3630392 32.68182542 20.32556604 35.42443396 17.5 38.25 C18.49 39.03375 19.48 39.8175 20.5 40.625 C21.49 41.49125 22.48 42.3575 23.5 43.25 C23.5 43.91 23.5 44.57 23.5 45.25 C21.96089264 45.38687714 20.41812705 45.48284005 18.875 45.5625 C18.01648438 45.62050781 17.15796875 45.67851562 16.2734375 45.73828125 C12.92485645 45.14874233 11.65859835 43.58764569 9.20507812 41.36108398 C5.94235903 39.23499083 2.30992843 39.85754868 -1.4375 40.125 C-8.39872824 40.55463377 -13.74893043 40.37589131 -19.375 35.6875 C-22.76078237 31.36122253 -21.80740162 25.74809276 -21.875 20.5 C-21.91238281 19.41460937 -21.94976562 18.32921875 -21.98828125 17.2109375 C-22.08727976 8.21307328 -22.08727976 8.21307328 -19.4140625 4.609375 C-13.53424275 -0.15122973 -7.22771993 -0.06850919 0 0 Z M-10.5 8.25 C-10.5 16.17 -10.5 24.09 -10.5 32.25 C-8.09454362 33.45272819 -6.55003047 33.35071472 -3.875 33.3125 C-3.05773437 33.30347656 -2.24046875 33.29445313 -1.3984375 33.28515625 C-0.77195313 33.27355469 -0.14546875 33.26195312 0.5 33.25 C-1.15 31.27 -2.8 29.29 -4.5 27.25 C4.71416444 27.60168567 4.71416444 27.60168567 8 30.3125 C8.495 30.951875 8.99 31.59125 9.5 32.25 C10.16 32.25 10.82 32.25 11.5 32.25 C11.5 24.33 11.5 16.41 11.5 8.25 C9.22926921 7.1146346 7.95716721 7.12107588 5.4375 7.1171875 C4.64085937 7.11589844 3.84421875 7.11460937 3.0234375 7.11328125 C1.77433594 7.11908203 1.77433594 7.11908203 0.5 7.125 C-0.33273438 7.12113281 -1.16546875 7.11726562 -2.0234375 7.11328125 C-2.82007813 7.11457031 -3.61671875 7.11585938 -4.4375 7.1171875 C-5.53384766 7.11887939 -5.53384766 7.11887939 -6.65234375 7.12060547 C-8.59566053 7.13798205 -8.59566053 7.13798205 -10.5 8.25 Z " fill="#E58E00" transform="translate(175.5,141.75)"/>
<path d="M0 0 C3.3 0 6.6 0 10 0 C10.33 6.6 10.66 13.2 11 20 C17.6 20.33 24.2 20.66 31 21 C31 14.07 31 7.14 31 0 C34.3 0 37.6 0 41 0 C41.0744013 4.32328804 41.12871968 8.64623255 41.16479492 12.9699707 C41.17984066 14.43943782 41.20028238 15.90886034 41.22631836 17.37817383 C41.26288955 19.4957177 41.27976801 21.61266565 41.29296875 23.73046875 C41.3086792 25.00301514 41.32438965 26.27556152 41.34057617 27.58666992 C40.96204857 31.38035771 40.48035845 33.11387372 38 36 C33.07826305 38.74159363 29.11855456 39.36247163 23.53515625 39.29296875 C22.51789711 39.28660149 22.51789711 39.28660149 21.48008728 39.28010559 C19.34046598 39.26347941 17.20183053 39.22586174 15.0625 39.1875 C13.60092518 39.17243222 12.13933542 39.1587475 10.67773438 39.14648438 C7.11817603 39.11362977 3.55918444 39.06196241 0 39 C0 36.69 0 34.38 0 32 C14.85 31.505 14.85 31.505 30 31 C30.33 29.68 30.66 28.36 31 27 C30.00202393 27.02356567 30.00202393 27.02356567 28.98388672 27.04760742 C25.9476788 27.11025597 22.91160728 27.14908509 19.875 27.1875 C18.30492187 27.22520508 18.30492187 27.22520508 16.703125 27.26367188 C11.08832175 27.31697697 6.76650533 27.35218162 2 24 C-0.16926659 20.74610012 -0.24080049 19.86604043 -0.1953125 16.11328125 C-0.18886719 15.17548828 -0.18242188 14.23769531 -0.17578125 13.27148438 C-0.15902344 12.29501953 -0.14226562 11.31855469 -0.125 10.3125 C-0.11597656 9.32443359 -0.10695313 8.33636719 -0.09765625 7.31835938 C-0.07408566 4.87880294 -0.03821469 2.43937099 0 0 Z " fill="#00618A" transform="translate(67,154)"/>
<path d="M0 0 C1.25039062 0.00322266 2.50078125 0.00644531 3.7890625 0.00976562 C5.74199219 0.02233398 5.74199219 0.02233398 7.734375 0.03515625 C9.71050781 0.04192383 9.71050781 0.04192383 11.7265625 0.04882812 C14.97921241 0.06061309 18.23177084 0.07706614 21.484375 0.09765625 C21.484375 2.40765625 21.484375 4.71765625 21.484375 7.09765625 C11.914375 7.42765625 2.344375 7.75765625 -7.515625 8.09765625 C-7.185625 10.40765625 -6.855625 12.71765625 -6.515625 15.09765625 C-2.67934884 17.01579433 2.38677535 16.38780625 6.65625 16.43945312 C12.58215204 16.64900394 16.18964664 17.80292789 20.484375 22.09765625 C20.91217716 26.13733096 20.96364043 30.06202349 20.484375 34.09765625 C17.4729371 37.81766777 13.99922727 38.7958361 9.484375 40.09765625 C6.41650391 40.32470703 6.41650391 40.32470703 3.2109375 40.29296875 C1.48037109 40.28330078 1.48037109 40.28330078 -0.28515625 40.2734375 C-1.47496094 40.25667969 -2.66476563 40.23992187 -3.890625 40.22265625 C-5.10363281 40.21363281 -6.31664063 40.20460937 -7.56640625 40.1953125 C-10.54968273 40.17182213 -13.53255094 40.13897307 -16.515625 40.09765625 C-16.515625 37.78765625 -16.515625 35.47765625 -16.515625 33.09765625 C-15.76877441 33.0726001 -15.02192383 33.04754395 -14.25244141 33.02172852 C-10.88165233 32.90597412 -7.51115717 32.78315497 -4.140625 32.66015625 C-2.965 32.62083984 -1.789375 32.58152344 -0.578125 32.54101562 C0.54335937 32.49912109 1.66484375 32.45722656 2.8203125 32.4140625 C3.85720215 32.37740479 4.8940918 32.34074707 5.96240234 32.30297852 C8.47862666 32.25601402 8.47862666 32.25601402 10.484375 31.09765625 C10.89166728 28.77609028 11.22876177 26.44077755 11.484375 24.09765625 C10.205625 24.071875 8.926875 24.04609375 7.609375 24.01953125 C5.90100935 23.9632115 4.19267733 23.90586507 2.484375 23.84765625 C1.64519531 23.83347656 0.80601562 23.81929687 -0.05859375 23.8046875 C-5.90992777 23.57789161 -10.64851105 22.49383433 -15.515625 19.09765625 C-17.50527961 15.11834703 -17.18189712 10.4128579 -16.515625 6.09765625 C-14.5696957 3.17559303 -12.06999231 1.62655529 -8.71972656 0.48657227 C-5.78776546 -0.03077532 -2.97709695 -0.01353226 0 0 Z " fill="#E68F00" transform="translate(129.515625,141.90234375)"/>
<path d="M0 0 C2.97 0 5.94 0 9 0 C9 10.56 9 21.12 9 32 C22.86 32.495 22.86 32.495 37 33 C37 35.31 37 37.62 37 40 C33.16673205 40.05859888 29.33358112 40.09379643 25.5 40.125 C24.42234375 40.14175781 23.3446875 40.15851563 22.234375 40.17578125 C14.92914012 40.22032537 8.34265397 40.20472921 2.0625 36.0625 C-1.52762177 32.47237823 -1.128382 29.02981682 -1.1328125 24.1796875 C-1.13376923 23.52042267 -1.13472595 22.86115784 -1.13571167 22.18191528 C-1.13639105 20.79168604 -1.13455367 19.40145359 -1.13037109 18.01123047 C-1.12500228 15.87590486 -1.13033293 13.74078797 -1.13671875 11.60546875 C-1.13605826 10.25520787 -1.1347777 8.90494711 -1.1328125 7.5546875 C-1.13168457 6.32218262 -1.13055664 5.08967773 -1.12939453 3.81982422 C-1 1 -1 1 0 0 Z " fill="#E58E00" transform="translate(201,142)"/>
<path d="M0 0 C0.33 0 0.66 0 1 0 C1 6.6 1 13.2 1 20 C-5.27 20 -11.54 20 -18 20 C-18 13.73 -18 7.46 -18 1 C-17.67 1 -17.34 1 -17 1 C-17 6.94 -17 12.88 -17 19 C-11.39 19 -5.78 19 0 19 C0 12.73 0 6.46 0 0 Z " fill="#006089" transform="translate(96,154)"/>
<path d="M0 0 C6.93 0 13.86 0 21 0 C21 0.99 21 1.98 21 3 C11.43 3 1.86 3 -8 3 C-8 2.67 -8 2.34 -8 2 C-5.36 1.67 -2.72 1.34 0 1 C0 0.67 0 0.34 0 0 Z " fill="#006089" transform="translate(76,182)"/>
<path d="M0 0 C9.9 0 19.8 0 30 0 C30 0.33 30 0.66 30 1 C20.1 1 10.2 1 0 1 C0 0.67 0 0.34 0 0 Z " fill="#006089" transform="translate(68,194)"/>
<path d="M0 0 C0.33 0 0.66 0 1 0 C1 9.9 1 19.8 1 30 C0.67 30 0.34 30 0 30 C0 20.1 0 10.2 0 0 Z " fill="#E38D00" transform="translate(211,143)"/>
<path d="M0 0 C2 2 2 2 2.22705078 4.33837891 C2.21657715 5.29147949 2.20610352 6.24458008 2.1953125 7.2265625 C2.18886719 8.2578125 2.18242187 9.2890625 2.17578125 10.3515625 C2.15902344 11.43179688 2.14226562 12.51203125 2.125 13.625 C2.11597656 14.71296875 2.10695312 15.8009375 2.09765625 16.921875 C2.07403409 19.61480152 2.04109556 22.30729255 2 25 C1.67 25 1.34 25 1 25 C0.67 16.75 0.34 8.5 0 0 Z " fill="#E38D00" transform="translate(197,148)"/>
<path d="M0 0 C8.58 0 17.16 0 26 0 C26 0.33 26 0.66 26 1 C17.42 1 8.84 1 0 1 C0 0.67 0 0.34 0 0 Z " fill="#E38D00" transform="translate(124,150)"/>
<path d="M0 0 C8.25 0 16.5 0 25 0 C25 0.33 25 0.66 25 1 C16.75 1 8.5 1 0 1 C0 0.67 0 0.34 0 0 Z " fill="#E38D00" transform="translate(213,173)"/>
<path d="M0 0 C8.25 0 16.5 0 25 0 C25 0.33 25 0.66 25 1 C16.75 1 8.5 1 0 1 C0 0.67 0 0.34 0 0 Z " fill="#E38D00" transform="translate(113,173)"/>
<path d="M0 0 C1.92753182 3.85506365 2.2330787 4.7639723 1.9765625 8.765625 C1.925 9.65507812 1.8734375 10.54453125 1.8203125 11.4609375 C1.75585938 12.38132813 1.69140625 13.30171875 1.625 14.25 C1.56828125 15.18585938 1.5115625 16.12171875 1.453125 17.0859375 C1.31197212 19.39143448 1.1605965 21.69578928 1 24 C0.67 24 0.34 24 0 24 C0 16.08 0 8.16 0 0 Z " fill="#006089" transform="translate(14,157)"/>
<path d="M0 0 C0.33 0 0.66 0 1 0 C1 7.92 1 15.84 1 24 C0.67 24 0.34 24 0 24 C-0.19682269 20.56296699 -0.38085152 17.12536573 -0.5625 13.6875 C-0.61857422 12.71103516 -0.67464844 11.73457031 -0.73242188 10.72851562 C-0.78076172 9.79072266 -0.82910156 8.85292969 -0.87890625 7.88671875 C-0.9260376 7.02264404 -0.97316895 6.15856934 -1.02172852 5.26831055 C-1 3 -1 3 0 0 Z " fill="#006089" transform="translate(50,157)"/>
<path d="M0 0 C1.65 0 3.3 0 5 0 C5.66 1.32 6.32 2.64 7 4 C6.01 4.99 5.02 5.98 4 7 C2.02 3.535 2.02 3.535 0 0 Z " fill="#00628B" transform="translate(177,79)"/>
<path d="M0 0 C0.33 0 0.66 0 1 0 C1 6.6 1 13.2 1 20 C0.67 20 0.34 20 0 20 C0 13.4 0 6.8 0 0 Z " fill="#006089" transform="translate(65,154)"/>
<path d="M0 0 C5.28 0 10.56 0 16 0 C16 0.33 16 0.66 16 1 C10.72 1 5.44 1 0 1 C0 0.67 0 0.34 0 0 Z " fill="#E38D00" transform="translate(123,166)"/>
<path d="M0 0 C5.28 0 10.56 0 16 0 C16 0.33 16 0.66 16 1 C10.72 1 5.44 1 0 1 C0 0.67 0 0.34 0 0 Z " fill="#E38D00" transform="translate(126,157)"/>
<path d="M0 0 C5.28 0 10.56 0 16 0 C16 0.33 16 0.66 16 1 C10.72 1 5.44 1 0 1 C0 0.67 0 0.34 0 0 Z " fill="#E38D00" transform="translate(168,150)"/>
<path d="M0 0 C0.33 0 0.66 0 1 0 C1 3.96 1 7.92 1 12 C0.67 12 0.34 12 0 12 C0 8.04 0 4.08 0 0 Z " fill="#006089" transform="translate(170,107)"/>
<path d="M0 0 C3.63 0 7.26 0 11 0 C11 0.33 11 0.66 11 1 C7.37 1 3.74 1 0 1 C0 0.67 0 0.34 0 0 Z " fill="#E38D00" transform="translate(166,183)"/>
<path d="M0 0 C0.33 0 0.66 0 1 0 C1 3.63 1 7.26 1 11 C0.67 11 0.34 11 0 11 C0 7.37 0 3.74 0 0 Z " fill="#E28D00" transform="translate(111,148)"/>
<path d="M0 0 C0.33 0 0.66 0 1 0 C1 3.63 1 7.26 1 11 C0.67 11 0.34 11 0 11 C0 7.37 0 3.74 0 0 Z " fill="#006089" transform="translate(177,107)"/>
<path d="M0 0 C3.3 0 6.6 0 10 0 C10 0.33 10 0.66 10 1 C6.7 1 3.4 1 0 1 C0 0.67 0 0.34 0 0 Z " fill="#E38E00" transform="translate(189,188)"/>
<path d="M0 0 C0.99 0.495 0.99 0.495 2 1 C2 3.64 2 6.28 2 9 C1.67 9 1.34 9 1 9 C0.67 6.03 0.34 3.06 0 0 Z " fill="#E38D00" transform="translate(151,164)"/>
<path d="M0 0 C3.3 0 6.6 0 10 0 C10 0.33 10 0.66 10 1 C6.7 1 3.4 1 0 1 C0 0.67 0 0.34 0 0 Z " fill="#E48E00" transform="translate(171,167)"/>
<path d="M0 0 C2.97 0 5.94 0 9 0 C9 0.33 9 0.66 9 1 C6.03 1 3.06 1 0 1 C0 0.67 0 0.34 0 0 Z " fill="#006089" transform="translate(98,152)"/>
<path d="M0 0 C2.97 0 5.94 0 9 0 C9 0.33 9 0.66 9 1 C6.03 1 3.06 1 0 1 C0 0.67 0 0.34 0 0 Z " fill="#006089" transform="translate(67,152)"/>
<path d="M0 0 C2.31 0 4.62 0 7 0 C7 0.33 7 0.66 7 1 C4.69 1 2.38 1 0 1 C0 0.67 0 0.34 0 0 Z " fill="#006089" transform="translate(29,183)"/>
<path d="M0 0 C0.66 0.66 1.32 1.32 2 2 C0.02 2 -1.96 2 -4 2 C-2.68 1.34 -1.36 0.68 0 0 Z " fill="#E38D00" transform="translate(171,172)"/>
<path d="M0 0 C0.33 0 0.66 0 1 0 C1.33 1.98 1.66 3.96 2 6 C1.34 6 0.68 6 0 6 C0 4.02 0 2.04 0 0 Z " fill="#E38D00" transform="translate(123,151)"/>
<path d="M0 0 C0.33 0 0.66 0 1 0 C1 1.98 1 3.96 1 6 C0.67 6 0.34 6 0 6 C0 4.02 0 2.04 0 0 Z " fill="#E38D00" transform="translate(239,175)"/>
<path d="M0 0 C0.33 0 0.66 0 1 0 C1 1.98 1 3.96 1 6 C0.67 6 0.34 6 0 6 C0 4.02 0 2.04 0 0 Z " fill="#E38E00" transform="translate(139,167)"/>
<path d="M0 0 C0.33 0.99 0.66 1.98 1 3 C0.34 3.66 -0.32 4.32 -1 5 C-0.67 3.35 -0.34 1.7 0 0 Z " fill="#006089" transform="translate(179,117)"/>
<path d="M0 0 C1.98 0 3.96 0 6 0 C6 0.33 6 0.66 6 1 C4.02 1 2.04 1 0 1 C0 0.67 0 0.34 0 0 Z " fill="#006089" transform="translate(178,75)"/>
<path d="M0 0 C0.33 0 0.66 0 1 0 C1 1.98 1 3.96 1 6 C0.67 6 0.34 6 0 6 C0 4.02 0 2.04 0 0 Z " fill="#006089" transform="translate(157,66)"/>
<path d="M0 0 C1.98 0 3.96 0 6 0 C6 0.33 6 0.66 6 1 C4.02 1 2.04 1 0 1 C0 0.67 0 0.34 0 0 Z " fill="#006089" transform="translate(162,61)"/>
<path d="M0 0 C0.33 0 0.66 0 1 0 C1 1.65 1 3.3 1 5 C0.67 5 0.34 5 0 5 C0 3.35 0 1.7 0 0 Z " fill="#00618A" transform="translate(65,187)"/>
<path d="M0 0 C0.33 0 0.66 0 1 0 C1 1.65 1 3.3 1 5 C0.67 5 0.34 5 0 5 C0 3.35 0 1.7 0 0 Z " fill="#E48E00" transform="translate(152,143)"/>
<path d="M0 0 C0.99 0 1.98 0 3 0 C3 0.66 3 1.32 3 2 C2.01 1.67 1.02 1.34 0 1 C0 0.67 0 0.34 0 0 Z " fill="#006089" transform="translate(238,139)"/>
<path d="M0 0 C1.65 0 3.3 0 5 0 C5 0.33 5 0.66 5 1 C3.35 1 1.7 1 0 1 C0 0.67 0 0.34 0 0 Z " fill="#006089" transform="translate(178,67)"/>
<path d="M0 0 C4 1 4 1 4 1 Z " fill="#E38D00" transform="translate(209,182)"/>
<path d="M0 0 C0.99 0.33 1.98 0.66 3 1 C2.01 1 1.02 1 0 1 C0 0.67 0 0.34 0 0 Z " fill="#E38D00" transform="translate(193,179)"/>
<path d="M0 0 C4 1 4 1 4 1 Z " fill="#006089" transform="translate(53,140)"/>
<path d="M0 0 C4 1 4 1 4 1 Z " fill="#006089" transform="translate(8,140)"/>
<path d="M0 0 C4 1 4 1 4 1 Z " fill="#006189" transform="translate(179,131)"/>
<path d="M0 0 C0.99 0.495 0.99 0.495 2 1 C1.67 1.66 1.34 2.32 1 3 C0.67 2.01 0.34 1.02 0 0 Z " fill="#006089" transform="translate(186,125)"/>
<path d="M0 0 C3 1 3 1 3 1 Z " fill="#E38D00" transform="translate(161,182)"/>
<path d="M0 0 C3 1 3 1 3 1 Z " fill="#E38D00" transform="translate(140,182)"/>
<path d="" fill="#E38D00" transform="translate(0,0)"/>
<path d="M0 0 C0.66 0 1.32 0 2 0 C1.67 0.66 1.34 1.32 1 2 C0.67 1.34 0.34 0.68 0 0 Z " fill="#E38D00" transform="translate(184,171)"/>
<path d="M0 0 C3 1 3 1 3 1 Z " fill="#E38E00" transform="translate(119,165)"/>
<path d="M0 0 C3 1 3 1 3 1 Z " fill="#E38D00" transform="translate(186,141)"/>
<path d="M0 0 C3 1 3 1 3 1 Z " fill="#E38D00" transform="translate(162,141)"/>
<path d="M0 0 C3 1 3 1 3 1 Z " fill="#E38E00" transform="translate(119,141)"/>
<path d="M0 0 C3 1 3 1 3 1 Z " fill="#006189" transform="translate(14,140)"/>
<path d="M0 0 C3 1 3 1 3 1 Z " fill="#006089" transform="translate(244,138)"/>
<path d="M0 0 C3 1 3 1 3 1 Z " fill="#00608A" transform="translate(234,132)"/>
<path d="" fill="#006089" transform="translate(0,0)"/>
<path d="" fill="#006089" transform="translate(0,0)"/>
<path d="M0 0 C3 1 3 1 3 1 Z " fill="#006089" transform="translate(184,68)"/>
<path d="M0 0 C3 1 3 1 3 1 Z " fill="#006089" transform="translate(168,62)"/>
<path d="M0 0 C2 1 2 1 2 1 Z " fill="#00618A" transform="translate(99,193)"/>
<path d="" fill="#006089" transform="translate(0,0)"/>
<path d="M0 0 C2 1 2 1 2 1 Z " fill="#006089" transform="translate(36,182)"/>
<path d="M0 0 C2 1 2 1 2 1 Z " fill="#00608A" transform="translate(27,182)"/>
<path d="M0 0 C2 1 2 1 2 1 Z " fill="#E38D00" transform="translate(206,181)"/>
<path d="M0 0 C2 1 2 1 2 1 Z " fill="#E38D00" transform="translate(159,181)"/>
<path d="M0 0 C2 1 2 1 2 1 Z " fill="#E38E00" transform="translate(143,181)"/>
<path d="M0 0 C2 1 2 1 2 1 Z " fill="#006089" transform="translate(73,181)"/>
<path d="M0 0 C2 1 2 1 2 1 Z " fill="#00608A" transform="translate(69,179)"/>
<path d="" fill="#00608A" transform="translate(0,0)"/>
<path d="" fill="#00618A" transform="translate(0,0)"/>
<path d="" fill="#E38E00" transform="translate(0,0)"/>
<path d="" fill="#E38D00" transform="translate(0,0)"/>
<path d="" fill="#00608A" transform="translate(0,0)"/>
<path d="" fill="#006089" transform="translate(0,0)"/>
<path d="" fill="#E48D00" transform="translate(0,0)"/>
<path d="" fill="#E38E00" transform="translate(0,0)"/>
<path d="" fill="#E48D00" transform="translate(0,0)"/>
<path d="" fill="#00608A" transform="translate(0,0)"/>
<path d="" fill="#006089" transform="translate(0,0)"/>
<path d="" fill="#006089" transform="translate(0,0)"/>
<path d="" fill="#006189" transform="translate(0,0)"/>
<path d="" fill="#006088" transform="translate(0,0)"/>
<path d="" fill="#006189" transform="translate(0,0)"/>
<path d="" fill="#00608A" transform="translate(0,0)"/>
<path d="" fill="#00608A" transform="translate(0,0)"/>
<path d="" fill="#00608A" transform="translate(0,0)"/>
<path d="" fill="#006189" transform="translate(0,0)"/>
<path d="" fill="#006089" transform="translate(0,0)"/>
<path d="" fill="#00608A" transform="translate(0,0)"/>
<path d="" fill="#00618A" transform="translate(0,0)"/>
<path d="M0 0 C2 1 2 1 2 1 Z " fill="#E38D00" transform="translate(117,164)"/>
<path d="M0 0 C2 1 2 1 2 1 Z " fill="#E38E00" transform="translate(115,163)"/>
<path d="" fill="#00608A" transform="translate(0,0)"/>
<path d="" fill="#006189" transform="translate(0,0)"/>
<path d="" fill="#00618A" transform="translate(0,0)"/>
<path d="" fill="#006089" transform="translate(0,0)"/>
<path d="" fill="#00608A" transform="translate(0,0)"/>
<path d="M0 0 C2 1 2 1 2 1 Z " fill="#E38D00" transform="translate(145,159)"/>
<path d="" fill="#00608A" transform="translate(0,0)"/>
<path d="M0 0 C2 1 2 1 2 1 Z " fill="#E38D00" transform="translate(143,158)"/>
<path d="" fill="#006089" transform="translate(0,0)"/>
<path d="" fill="#006089" transform="translate(0,0)"/>
<path d="" fill="#006089" transform="translate(0,0)"/>
<path d="" fill="#006089" transform="translate(0,0)"/>
<path d="" fill="#006189" transform="translate(0,0)"/>
<path d="" fill="#006089" transform="translate(0,0)"/>
<path d="" fill="#006089" transform="translate(0,0)"/>
<path d="M0 0 C2 1 2 1 2 1 Z " fill="#006189" transform="translate(244,151)"/>
<path d="M0 0 C2 1 2 1 2 1 Z " fill="#006089" transform="translate(242,150)"/>
<path d="" fill="#00608A" transform="translate(0,0)"/>
<path d="M0 0 C2 1 2 1 2 1 Z " fill="#006089" transform="translate(240,149)"/>
<path d="" fill="#E38D00" transform="translate(0,0)"/>
<path d="M0 0 C2 1 2 1 2 1 Z " fill="#00618A" transform="translate(238,148)"/>
<path d="" fill="#006189" transform="translate(0,0)"/>
<path d="" fill="#006189" transform="translate(0,0)"/>
<path d="" fill="#006089" transform="translate(0,0)"/>
<path d="M0 0 C2 1 2 1 2 1 Z " fill="#006089" transform="translate(246,145)"/>
<path d="M0 0 C2 1 2 1 2 1 Z " fill="#E38D00" transform="translate(190,142)"/>
<path d="M0 0 C2 1 2 1 2 1 Z " fill="#E48E00" transform="translate(159,142)"/>
<path d="M0 0 C2 1 2 1 2 1 Z " fill="#E38D00" transform="translate(117,142)"/>
<path d="M0 0 C2 1 2 1 2 1 Z " fill="#006089" transform="translate(241,141)"/>
<path d="M0 0 C2 1 2 1 2 1 Z " fill="#00608A" transform="translate(49,140)"/>
<path d="" fill="#006089" transform="translate(0,0)"/>
<path d="M0 0 C2 1 2 1 2 1 Z " fill="#006189" transform="translate(194,134)"/>
<path d="M0 0 C2 1 2 1 2 1 Z " fill="#006089" transform="translate(231,133)"/>
<path d="M0 0 C2 1 2 1 2 1 Z " fill="#006089" transform="translate(238,131)"/>
<path d="M0 0 C2 1 2 1 2 1 Z " fill="#006189" transform="translate(177,130)"/>
<path d="M0 0 C2 1 2 1 2 1 Z " fill="#006189" transform="translate(235,129)"/>
<path d="M0 0 C2 1 2 1 2 1 Z " fill="#006189" transform="translate(243,127)"/>
<path d="M0 0 C2 1 2 1 2 1 Z " fill="#006189" transform="translate(232,127)"/>
<path d="" fill="#006089" transform="translate(0,0)"/>
<path d="M0 0 C2 1 2 1 2 1 Z " fill="#00608A" transform="translate(229,126)"/>
<path d="" fill="#00608A" transform="translate(0,0)"/>
<path d="M0 0 C2 1 2 1 2 1 Z " fill="#006189" transform="translate(226,125)"/>
<path d="M0 0 C2 1 2 1 2 1 Z " fill="#00618A" transform="translate(239,124)"/>
<path d="" fill="#00608A" transform="translate(0,0)"/>
<path d="" fill="#006188" transform="translate(0,0)"/>
<path d="" fill="#00608A" transform="translate(0,0)"/>
<path d="" fill="#006089" transform="translate(0,0)"/>
<path d="M0 0 C2 1 2 1 2 1 Z " fill="#006089" transform="translate(233,120)"/>
<path d="M0 0 C2 1 2 1 2 1 Z " fill="#006189" transform="translate(231,119)"/>
<path d="" fill="#00618A" transform="translate(0,0)"/>
<path d="" fill="#006189" transform="translate(0,0)"/>
<path d="" fill="#006189" transform="translate(0,0)"/>
<path d="" fill="#006089" transform="translate(0,0)"/>
<path d="" fill="#006089" transform="translate(0,0)"/>
<path d="" fill="#006089" transform="translate(0,0)"/>
<path d="" fill="#006089" transform="translate(0,0)"/>
<path d="" fill="#006089" transform="translate(0,0)"/>
<path d="" fill="#006089" transform="translate(0,0)"/>
<path d="" fill="#00618A" transform="translate(0,0)"/>
<path d="" fill="#006189" transform="translate(0,0)"/>
<path d="" fill="#006089" transform="translate(0,0)"/>
<path d="" fill="#006189" transform="translate(0,0)"/>
<path d="" fill="#006189" transform="translate(0,0)"/>
<path d="" fill="#00618A" transform="translate(0,0)"/>
<path d="" fill="#00618A" transform="translate(0,0)"/>
<path d="" fill="#006089" transform="translate(0,0)"/>
<path d="" fill="#006089" transform="translate(0,0)"/>
<path d="" fill="#006189" transform="translate(0,0)"/>
<path d="" fill="#00618A" transform="translate(0,0)"/>
<path d="" fill="#006089" transform="translate(0,0)"/>
<path d="" fill="#006089" transform="translate(0,0)"/>
<path d="" fill="#00608A" transform="translate(0,0)"/>
<path d="" fill="#00608A" transform="translate(0,0)"/>
<path d="" fill="#006189" transform="translate(0,0)"/>
<path d="" fill="#00618A" transform="translate(0,0)"/>
<path d="" fill="#006189" transform="translate(0,0)"/>
<path d="" fill="#006089" transform="translate(0,0)"/>
<path d="" fill="#006089" transform="translate(0,0)"/>
<path d="" fill="#006089" transform="translate(0,0)"/>
<path d="" fill="#006089" transform="translate(0,0)"/>
<path d="" fill="#006089" transform="translate(0,0)"/>
<path d="" fill="#00608A" transform="translate(0,0)"/>
<path d="" fill="#006189" transform="translate(0,0)"/>
<path d="" fill="#00608A" transform="translate(0,0)"/>
<path d="" fill="#005F89" transform="translate(0,0)"/>
<path d="" fill="#00608A" transform="translate(0,0)"/>
<path d="" fill="#00608A" transform="translate(0,0)"/>
<path d="M0 0 C2 1 2 1 2 1 Z " fill="#00608A" transform="translate(194,81)"/>
<path d="" fill="#006089" transform="translate(0,0)"/>
<path d="" fill="#006089" transform="translate(0,0)"/>
<path d="M0 0 C2 1 2 1 2 1 Z " fill="#006089" transform="translate(204,80)"/>
<path d="" fill="#006089" transform="translate(0,0)"/>
<path d="M0 0 C2 1 2 1 2 1 Z " fill="#006189" transform="translate(191,79)"/>
<path d="M0 0 C2 1 2 1 2 1 Z " fill="#006189" transform="translate(189,78)"/>
<path d="M0 0 C2 1 2 1 2 1 Z " fill="#00608A" transform="translate(187,77)"/>
<path d="M0 0 C2 1 2 1 2 1 Z " fill="#00608A" transform="translate(180,77)"/>
<path d="" fill="#006089" transform="translate(0,0)"/>
<path d="" fill="#006189" transform="translate(0,0)"/>
<path d="M0 0 C2 1 2 1 2 1 Z " fill="#006089" transform="translate(185,76)"/>
<path d="M0 0 C2 1 2 1 2 1 Z " fill="#006089" transform="translate(195,73)"/>
<path d="M0 0 C2 1 2 1 2 1 Z " fill="#006089" transform="translate(173,73)"/>
<path d="" fill="#006089" transform="translate(0,0)"/>
<path d="M0 0 C2 1 2 1 2 1 Z " fill="#006089" transform="translate(192,71)"/>
<path d="M0 0 C2 1 2 1 2 1 Z " fill="#006089" transform="translate(170,71)"/>
<path d="M0 0 C2 1 2 1 2 1 Z " fill="#006089" transform="translate(190,70)"/>
<path d="M0 0 C2 1 2 1 2 1 Z " fill="#006089" transform="translate(168,70)"/>
<path d="M0 0 C2 1 2 1 2 1 Z " fill="#006089" transform="translate(188,69)"/>
<path d="M0 0 C2 1 2 1 2 1 Z " fill="#006189" transform="translate(173,64)"/>
<path d="M0 0 C2 1 2 1 2 1 Z " fill="#006089" transform="translate(171,63)"/>
<path d="" fill="#00618A" transform="translate(0,0)"/>
<path d="" fill="#00608A" transform="translate(0,0)"/>
<path d="" fill="#00608A" transform="translate(0,0)"/>
<path d="" fill="#00618A" transform="translate(0,0)"/>
<path d="" fill="#00618A" transform="translate(0,0)"/>
<path d="" fill="#E48D00" transform="translate(0,0)"/>
<path d="" fill="#E38D00" transform="translate(0,0)"/>
<path d="" fill="#E38D00" transform="translate(0,0)"/>
<path d="" fill="#E38D00" transform="translate(0,0)"/>
<path d="" fill="#E38D00" transform="translate(0,0)"/>
<path d="" fill="#E38D00" transform="translate(0,0)"/>
<path d="" fill="#E38D00" transform="translate(0,0)"/>
<path d="" fill="#E48D00" transform="translate(0,0)"/>
<path d="" fill="#E38E00" transform="translate(0,0)"/>
<path d="" fill="#E38D00" transform="translate(0,0)"/>
<path d="" fill="#E38E00" transform="translate(0,0)"/>
<path d="" fill="#006089" transform="translate(0,0)"/>
<path d="" fill="#00608A" transform="translate(0,0)"/>
<path d="" fill="#E38D00" transform="translate(0,0)"/>
<path d="" fill="#E38E00" transform="translate(0,0)"/>
<path d="" fill="#E38D00" transform="translate(0,0)"/>
<path d="" fill="#00618A" transform="translate(0,0)"/>
<path d="" fill="#006189" transform="translate(0,0)"/>
<path d="" fill="#00608A" transform="translate(0,0)"/>
<path d="" fill="#E48E00" transform="translate(0,0)"/>
<path d="" fill="#E48D00" transform="translate(0,0)"/>
<path d="" fill="#E38D00" transform="translate(0,0)"/>
<path d="" fill="#006189" transform="translate(0,0)"/>
<path d="" fill="#00618A" transform="translate(0,0)"/>
<path d="" fill="#E48E00" transform="translate(0,0)"/>
<path d="" fill="#E48E00" transform="translate(0,0)"/>
<path d="" fill="#E48E00" transform="translate(0,0)"/>
<path d="" fill="#E38E00" transform="translate(0,0)"/>
<path d="" fill="#00618A" transform="translate(0,0)"/>
<path d="" fill="#E38E00" transform="translate(0,0)"/>
<path d="" fill="#E38D00" transform="translate(0,0)"/>
<path d="" fill="#00618A" transform="translate(0,0)"/>
<path d="" fill="#E48D00" transform="translate(0,0)"/>
<path d="" fill="#E38D00" transform="translate(0,0)"/>
<path d="" fill="#006089" transform="translate(0,0)"/>
<path d="" fill="#E48D00" transform="translate(0,0)"/>
<path d="" fill="#E48E00" transform="translate(0,0)"/>
<path d="" fill="#E48D00" transform="translate(0,0)"/>
<path d="" fill="#00618A" transform="translate(0,0)"/>
<path d="" fill="#E48E00" transform="translate(0,0)"/>
<path d="" fill="#E38D00" transform="translate(0,0)"/>
<path d="" fill="#E38E00" transform="translate(0,0)"/>
<path d="" fill="#E38D00" transform="translate(0,0)"/>
<path d="" fill="#00608A" transform="translate(0,0)"/>
<path d="" fill="#E38E00" transform="translate(0,0)"/>
<path d="" fill="#E48D00" transform="translate(0,0)"/>
<path d="" fill="#00618A" transform="translate(0,0)"/>
<path d="" fill="#E48E00" transform="translate(0,0)"/>
<path d="" fill="#E48D00" transform="translate(0,0)"/>
<path d="" fill="#E48E00" transform="translate(0,0)"/>
<path d="" fill="#E38D00" transform="translate(0,0)"/>
<path d="" fill="#00618A" transform="translate(0,0)"/>
<path d="" fill="#00608A" transform="translate(0,0)"/>
<path d="" fill="#00608A" transform="translate(0,0)"/>
<path d="" fill="#006089" transform="translate(0,0)"/>
<path d="" fill="#00618A" transform="translate(0,0)"/>
<path d="" fill="#006189" transform="translate(0,0)"/>
<path d="" fill="#00608A" transform="translate(0,0)"/>
<path d="" fill="#E48E00" transform="translate(0,0)"/>
<path d="" fill="#E38E00" transform="translate(0,0)"/>
<path d="" fill="#00608A" transform="translate(0,0)"/>
<path d="" fill="#006089" transform="translate(0,0)"/>
<path d="" fill="#00608A" transform="translate(0,0)"/>
<path d="" fill="#00618A" transform="translate(0,0)"/>
<path d="" fill="#006189" transform="translate(0,0)"/>
<path d="" fill="#E38E00" transform="translate(0,0)"/>
<path d="" fill="#E38D00" transform="translate(0,0)"/>
<path d="" fill="#E38D00" transform="translate(0,0)"/>
<path d="" fill="#006089" transform="translate(0,0)"/>
<path d="" fill="#00608A" transform="translate(0,0)"/>
<path d="" fill="#006089" transform="translate(0,0)"/>
<path d="" fill="#E48D00" transform="translate(0,0)"/>
<path d="" fill="#E48E00" transform="translate(0,0)"/>
<path d="" fill="#E48E00" transform="translate(0,0)"/>
<path d="" fill="#00608A" transform="translate(0,0)"/>
<path d="" fill="#006089" transform="translate(0,0)"/>
<path d="" fill="#006189" transform="translate(0,0)"/>
<path d="" fill="#006089" transform="translate(0,0)"/>
<path d="" fill="#006189" transform="translate(0,0)"/>
<path d="" fill="#E38E00" transform="translate(0,0)"/>
<path d="" fill="#E48E00" transform="translate(0,0)"/>
<path d="" fill="#E48E00" transform="translate(0,0)"/>
<path d="" fill="#00618A" transform="translate(0,0)"/>
<path d="" fill="#006089" transform="translate(0,0)"/>
<path d="" fill="#006089" transform="translate(0,0)"/>
<path d="" fill="#00618A" transform="translate(0,0)"/>
<path d="" fill="#E38E00" transform="translate(0,0)"/>
<path d="" fill="#E48D00" transform="translate(0,0)"/>
<path d="" fill="#E48D00" transform="translate(0,0)"/>
<path d="" fill="#006089" transform="translate(0,0)"/>
<path d="" fill="#00618A" transform="translate(0,0)"/>
<path d="" fill="#00618A" transform="translate(0,0)"/>
<path d="" fill="#00608A" transform="translate(0,0)"/>
<path d="" fill="#006189" transform="translate(0,0)"/>
<path d="" fill="#006089" transform="translate(0,0)"/>
<path d="" fill="#006189" transform="translate(0,0)"/>
<path d="" fill="#006089" transform="translate(0,0)"/>
<path d="" fill="#00608A" transform="translate(0,0)"/>
<path d="" fill="#006089" transform="translate(0,0)"/>
<path d="" fill="#006189" transform="translate(0,0)"/>
<path d="" fill="#00618A" transform="translate(0,0)"/>
<path d="" fill="#00618A" transform="translate(0,0)"/>
<path d="" fill="#00608A" transform="translate(0,0)"/>
<path d="" fill="#006089" transform="translate(0,0)"/>
<path d="" fill="#006089" transform="translate(0,0)"/>
<path d="" fill="#00618A" transform="translate(0,0)"/>
<path d="" fill="#006089" transform="translate(0,0)"/>
<path d="" fill="#006089" transform="translate(0,0)"/>
<path d="" fill="#00618A" transform="translate(0,0)"/>
<path d="" fill="#00608A" transform="translate(0,0)"/>
<path d="" fill="#00618A" transform="translate(0,0)"/>
<path d="" fill="#00608A" transform="translate(0,0)"/>
<path d="" fill="#00618A" transform="translate(0,0)"/>
<path d="" fill="#006189" transform="translate(0,0)"/>
<path d="" fill="#00608A" transform="translate(0,0)"/>
<path d="" fill="#00608A" transform="translate(0,0)"/>
<path d="" fill="#006089" transform="translate(0,0)"/>
<path d="" fill="#006189" transform="translate(0,0)"/>
<path d="" fill="#006089" transform="translate(0,0)"/>
<path d="" fill="#006189" transform="translate(0,0)"/>
<path d="" fill="#00608A" transform="translate(0,0)"/>
<path d="" fill="#00608A" transform="translate(0,0)"/>
<path d="" fill="#00608A" transform="translate(0,0)"/>
<path d="" fill="#00618A" transform="translate(0,0)"/>
<path d="" fill="#00618A" transform="translate(0,0)"/>
<path d="" fill="#00618A" transform="translate(0,0)"/>
<path d="" fill="#006089" transform="translate(0,0)"/>
<path d="" fill="#006089" transform="translate(0,0)"/>
<path d="" fill="#00608A" transform="translate(0,0)"/>
<path d="" fill="#00618A" transform="translate(0,0)"/>
<path d="" fill="#00608A" transform="translate(0,0)"/>
<path d="" fill="#006189" transform="translate(0,0)"/>
<path d="" fill="#006089" transform="translate(0,0)"/>
<path d="" fill="#006189" transform="translate(0,0)"/>
<path d="" fill="#00608A" transform="translate(0,0)"/>
<path d="" fill="#006089" transform="translate(0,0)"/>
<path d="" fill="#00608A" transform="translate(0,0)"/>
<path d="" fill="#006089" transform="translate(0,0)"/>
<path d="" fill="#00618A" transform="translate(0,0)"/>
<path d="" fill="#006189" transform="translate(0,0)"/>
<path d="" fill="#00608A" transform="translate(0,0)"/>
<path d="" fill="#00618A" transform="translate(0,0)"/>
<path d="" fill="#00608A" transform="translate(0,0)"/>
<path d="" fill="#00618A" transform="translate(0,0)"/>
<path d="" fill="#006189" transform="translate(0,0)"/>
<path d="" fill="#00618A" transform="translate(0,0)"/>
<path d="" fill="#006189" transform="translate(0,0)"/>
<path d="" fill="#00608A" transform="translate(0,0)"/>
<path d="" fill="#006189" transform="translate(0,0)"/>
<path d="" fill="#00618A" transform="translate(0,0)"/>
<path d="" fill="#006089" transform="translate(0,0)"/>
<path d="" fill="#006189" transform="translate(0,0)"/>
<path d="" fill="#006089" transform="translate(0,0)"/>
<path d="" fill="#006189" transform="translate(0,0)"/>
<path d="" fill="#00618A" transform="translate(0,0)"/>
<path d="" fill="#00618A" transform="translate(0,0)"/>
<path d="" fill="#006189" transform="translate(0,0)"/>
<path d="" fill="#006189" transform="translate(0,0)"/>
<path d="" fill="#00618A" transform="translate(0,0)"/>
<path d="" fill="#006089" transform="translate(0,0)"/>
<path d="" fill="#006189" transform="translate(0,0)"/>
<path d="" fill="#006089" transform="translate(0,0)"/>
<path d="" fill="#006189" transform="translate(0,0)"/>
<path d="" fill="#006089" transform="translate(0,0)"/>
<path d="" fill="#006189" transform="translate(0,0)"/>
<path d="" fill="#00608A" transform="translate(0,0)"/>
<path d="" fill="#00618A" transform="translate(0,0)"/>
<path d="" fill="#00608A" transform="translate(0,0)"/>
<path d="" fill="#006089" transform="translate(0,0)"/>
<path d="" fill="#00618A" transform="translate(0,0)"/>
<path d="" fill="#00608A" transform="translate(0,0)"/>
<path d="" fill="#006189" transform="translate(0,0)"/>
<path d="" fill="#00618A" transform="translate(0,0)"/>
<path d="" fill="#006189" transform="translate(0,0)"/>
<path d="" fill="#006189" transform="translate(0,0)"/>
<path d="" fill="#006189" transform="translate(0,0)"/>
<path d="" fill="#006089" transform="translate(0,0)"/>
<path d="" fill="#00618A" transform="translate(0,0)"/>
<path d="" fill="#006189" transform="translate(0,0)"/>
<path d="" fill="#00608A" transform="translate(0,0)"/>
<path d="" fill="#00608A" transform="translate(0,0)"/>
<path d="" fill="#006189" transform="translate(0,0)"/>
<path d="" fill="#006089" transform="translate(0,0)"/>
<path d="" fill="#00608A" transform="translate(0,0)"/>
<path d="" fill="#006089" transform="translate(0,0)"/>
<path d="" fill="#00618A" transform="translate(0,0)"/>
<path d="" fill="#006089" transform="translate(0,0)"/>
<path d="" fill="#00608A" transform="translate(0,0)"/>
<path d="" fill="#006089" transform="translate(0,0)"/>
<path d="" fill="#00618A" transform="translate(0,0)"/>
<path d="" fill="#006089" transform="translate(0,0)"/>
<path d="" fill="#006189" transform="translate(0,0)"/>
<path d="" fill="#006189" transform="translate(0,0)"/>
<path d="" fill="#006089" transform="translate(0,0)"/>
<path d="" fill="#006089" transform="translate(0,0)"/>
<path d="" fill="#006189" transform="translate(0,0)"/>
<path d="" fill="#006089" transform="translate(0,0)"/>
<path d="" fill="#00618A" transform="translate(0,0)"/>
<path d="" fill="#006089" transform="translate(0,0)"/>
<path d="" fill="#00608A" transform="translate(0,0)"/>
<path d="" fill="#00608A" transform="translate(0,0)"/>
<path d="" fill="#00618A" transform="translate(0,0)"/>
<path d="" fill="#00608A" transform="translate(0,0)"/>
<path d="" fill="#006189" transform="translate(0,0)"/>
<path d="" fill="#00618A" transform="translate(0,0)"/>
<path d="" fill="#00618A" transform="translate(0,0)"/>
<path d="" fill="#006089" transform="translate(0,0)"/>
<path d="" fill="#006089" transform="translate(0,0)"/>
</svg>
