<?xml version="1.0" standalone="no"?>
<!DOCTYPE svg PUBLIC "-//W3C//DTD SVG 20010904//EN"
 "http://www.w3.org/TR/2001/REC-SVG-20010904/DTD/svg10.dtd">
<svg version="1.0" xmlns="http://www.w3.org/2000/svg"
 width="50.000000pt" height="50.000000pt" viewBox="0 0 50.000000 50.000000"
 preserveAspectRatio="xMidYMid meet">

<g transform="translate(0.000000,50.000000) scale(0.100000,-0.100000)"
fill="#fff" stroke="none">
<path d="M141 423 c-24 -9 -66 -37 -92 -62 -60 -58 -63 -86 -16 -138 l33 -36
-23 -23 c-25 -25 -31 -72 -11 -92 19 -19 63 -14 92 9 15 12 46 23 69 26 158
16 207 33 207 70 0 13 31 18 43 7 3 -4 2 -15 -4 -25 -8 -15 -6 -21 7 -26 23
-8 48 9 52 36 6 36 -34 71 -80 71 -36 0 -38 2 -32 24 7 29 -24 43 -56 26 -30
-16 -33 -8 -14 34 44 91 -48 144 -175 99z m147 -19 c12 -8 22 -26 22 -39 0
-26 -42 -81 -68 -89 -52 -14 -79 -15 -95 -4 -15 11 -11 13 28 13 58 1 100 31
100 71 0 27 -3 29 -42 32 -44 3 -109 -23 -150 -61 -33 -30 -30 -70 8 -101 38
-32 44 -32 87 1 34 25 35 26 49 7 8 -11 12 -32 9 -49 -3 -23 2 -17 20 23 25
51 58 74 47 32 -9 -32 17 -23 28 10 6 17 18 30 26 30 9 0 13 -6 9 -15 -11 -29
5 -45 44 -45 52 0 93 -45 60 -65 -6 -4 -7 1 -3 11 8 22 -21 44 -58 44 -21 0
-28 -6 -31 -21 -3 -23 -33 -48 -44 -37 -3 4 -3 15 0 25 6 15 9 15 17 3 9 -12
10 -12 5 3 -3 10 -6 26 -6 34 0 13 -3 13 -15 3 -8 -7 -15 -25 -15 -41 0 -19
-7 -32 -21 -40 -27 -14 -46 2 -24 21 16 13 21 50 7 50 -5 0 -17 -18 -27 -40
-17 -37 -45 -55 -45 -28 0 6 -6 4 -13 -7 -18 -24 -37 -11 -37 26 0 16 -4 29
-10 29 -5 0 -10 -15 -10 -33 0 -41 -37 -80 -72 -75 -37 5 -32 57 8 83 l31 20
-45 40 c-38 34 -44 45 -39 66 21 85 198 160 265 113z m-28 -49 c0 -8 -15 -24
-32 -36 -26 -15 -43 -18 -76 -14 -41 6 -43 5 -40 -17 2 -13 13 -27 26 -33 26
-12 28 -21 5 -29 -19 -8 -63 30 -63 54 0 19 32 51 75 73 40 21 105 22 105 2z"/>
<path d="M190 211 c-12 -24 -14 -69 -1 -55 4 5 13 24 19 42 12 35 -1 44 -18
13z"/>
<path d="M81 144 c-25 -32 -18 -51 12 -31 23 15 36 57 18 57 -5 0 -19 -12 -30
-26z"/>
</g>
</svg>
